<svg width="580" height="551" viewBox="0 0 580 551" fill="none" xmlns="http://www.w3.org/2000/svg">
<path d="M260 80.5L63.4667 277.033" stroke="#39CEAA" stroke-width="40" stroke-linecap="round" stroke-linejoin="round"/>
<path d="M572.5 194L390.109 376.391" stroke="#39CEAA" stroke-width="10" stroke-linecap="round" stroke-linejoin="round"/>
<path d="M560.5 15L384.473 191.027" stroke="#F2C94C" stroke-width="20" stroke-linecap="round" stroke-linejoin="round"/>
<line x1="190.169" y1="360.643" x2="14.1422" y2="536.67" stroke="#F2C94C" stroke-width="20" stroke-linecap="round" stroke-linejoin="round"/>
<path fill-rule="evenodd" clip-rule="evenodd" d="M311.857 251.199C310.697 249.839 309.474 248.515 308.189 247.23C281.829 220.869 239.09 220.869 212.73 247.23C186.369 273.59 186.369 316.329 212.73 342.689C214.015 343.974 215.339 345.197 216.699 346.357L311.857 251.199Z" fill="#446EDC"/>
<path fill-rule="evenodd" clip-rule="evenodd" d="M263.151 299.809C264.31 301.168 265.533 302.493 266.818 303.778C293.179 330.138 335.917 330.138 362.278 303.778C388.638 277.417 388.638 234.679 362.278 208.318C360.993 207.033 359.668 205.81 358.309 204.651L263.151 299.809Z" fill="#39CEAA"/>
</svg>
